<?xml version="1.0" standalone="no"?>
<!DOCTYPE svg PUBLIC "-//W3C//DTD SVG 20010904//EN"
 "http://www.w3.org/TR/2001/REC-SVG-20010904/DTD/svg10.dtd">
<svg version="1.0" xmlns="http://www.w3.org/2000/svg"
 width="300.000000pt" height="154.000000pt" viewBox="0 0 300.000000 154.000000"
 preserveAspectRatio="xMidYMid meet">
<metadata>
Created by potrace 1.10, written by Peter Selinger 2001-2011
</metadata>
<g transform="translate(0.000000,154.000000) scale(0.100000,-0.100000)"
fill="#000000" stroke="none">
<path d="M1675 1160 c-11 -5 -29 -11 -40 -15 -18 -6 -18 -7 5 -18 l25 -13 3
-242 2 -242 -26 -10 c-15 -6 -24 -13 -21 -16 11 -11 131 -7 135 5 2 6 -6 11
-17 11 -29 0 -35 33 -28 157 6 116 20 151 70 164 77 21 97 -18 97 -186 0 -118
-1 -127 -20 -132 -11 -3 -20 -10 -20 -17 0 -7 23 -11 65 -11 42 0 65 4 65 11
0 7 -9 14 -20 17 -19 5 -20 14 -20 131 0 144 -12 186 -59 210 -47 25 -77 20
-122 -21 l-41 -37 3 132 c4 135 3 139 -36 122z"/>
<path d="M315 1134 c-33 -8 -98 -58 -123 -94 -55 -83 -66 -227 -24 -322 39
-88 138 -147 221 -133 63 10 97 38 104 81 15 86 0 101 -27 29 -23 -58 -57 -85
-109 -85 -35 0 -46 6 -82 43 -52 54 -70 115 -69 223 2 145 63 234 160 234 35
0 47 -6 73 -35 17 -20 31 -42 31 -50 0 -8 5 -15 11 -15 6 0 9 19 7 47 -3 41
-7 50 -30 61 -30 14 -111 23 -143 16z"/>
<path d="M1164 1095 c-11 -44 38 -77 51 -35 9 29 -4 60 -25 60 -13 0 -22 -9
-26 -25z"/>
<path d="M2071 1022 c-7 -18 -24 -41 -37 -51 -28 -22 -31 -43 -6 -39 16 3 17
-10 17 -147 0 -163 6 -188 51 -199 32 -8 87 21 93 50 3 18 2 18 -16 2 -26 -24
-60 -23 -73 1 -5 11 -10 83 -10 161 l0 141 43 -3 c32 -2 42 1 42 12 0 11 -10
14 -42 12 l-42 -3 -3 48 -3 48 -14 -33z"/>
<path d="M593 950 c-37 -33 -40 -40 -18 -40 13 0 15 -22 15 -141 0 -132 -1
-141 -20 -146 -11 -3 -20 -10 -20 -17 0 -7 26 -11 75 -11 51 0 75 4 75 12 0 6
-12 13 -27 15 l-28 3 -3 120 c-3 124 6 168 38 185 13 7 25 4 45 -12 27 -21 28
-21 41 -3 18 24 18 30 -2 49 -24 25 -53 19 -91 -19 -19 -19 -37 -35 -40 -35
-3 0 -3 16 0 35 7 42 1 43 -40 5z"/>
<path d="M910 973 c-68 -26 -112 -101 -112 -192 0 -136 84 -220 191 -191 44
12 91 51 91 76 0 15 -5 13 -28 -10 -84 -80 -198 -13 -205 121 l-2 48 118 3
117 3 0 30 c0 80 -93 141 -170 112z m95 -38 c55 -54 22 -85 -91 -85 -69 0 -73
4 -49 50 32 62 97 79 140 35z"/>
<path d="M1185 960 c-10 -11 -26 -22 -36 -25 -25 -8 -24 -21 1 -28 20 -5 20
-12 18 -144 -3 -135 -4 -138 -25 -141 -13 -2 -23 -9 -23 -15 0 -8 23 -12 70
-12 49 0 70 4 70 13 0 6 -9 12 -20 12 -24 0 -22 -15 -21 187 0 89 -3 165 -8
167 -5 3 -16 -3 -26 -14z"/>
<path d="M1384 970 c-11 -4 -33 -22 -47 -40 -45 -53 -32 -154 24 -194 21 -14
20 -15 -21 -36 l-41 -21 26 -36 27 -35 -36 -35 c-66 -65 -40 -134 59 -152 125
-23 246 69 215 163 -15 47 -55 66 -137 66 -74 0 -99 10 -90 34 6 15 18 19 89
31 75 12 124 95 100 172 -10 33 -10 34 16 31 20 -2 28 2 30 16 3 16 -1 18 -29
14 -20 -3 -49 2 -74 13 -43 20 -78 23 -111 9z m95 -29 c42 -42 40 -150 -4
-188 -59 -51 -115 -3 -115 98 0 43 21 94 42 102 28 11 59 6 77 -12z m20 -342
c55 -19 68 -78 28 -125 -20 -23 -34 -28 -83 -32 -77 -5 -114 20 -114 77 0 72
81 110 169 80z"/>
<path d="M2324 966 c-104 -46 -134 -231 -53 -329 77 -94 218 -63 265 58 22 60
15 160 -16 210 -40 65 -126 91 -196 61z m126 -34 c64 -64 68 -232 7 -299 -46
-52 -124 -36 -159 31 -28 53 -30 184 -5 233 36 69 107 84 157 35z"/>
<path d="M2656 965 c-3 -8 -17 -20 -31 -27 -28 -12 -33 -28 -10 -28 13 0 15
-22 15 -141 0 -133 -1 -141 -20 -146 -41 -11 -13 -25 48 -25 72 0 87 7 47 22
l-27 10 4 128 c4 138 12 165 60 181 76 27 98 -16 98 -184 0 -118 -1 -127 -20
-132 -11 -3 -20 -10 -20 -17 0 -7 23 -11 65 -11 45 0 65 4 65 13 0 6 -9 12
-20 12 -19 0 -20 7 -20 123 0 67 -5 139 -11 160 -22 79 -116 99 -171 37 l-28
-30 0 35 c0 36 -13 47 -24 20z"/>
<path d="M143 507 c-3 -5 -3 -10 0 -13 10 -10 1102 -4 1105 6 4 12 -1097 19
-1105 7z"/>
<path d="M1622 500 c4 -14 1322 -14 1326 0 3 7 -211 10 -663 10 -444 0 -666
-3 -663 -10z"/>
<path d="M2455 364 c-8 -46 -2 -52 19 -19 9 14 23 25 31 25 12 0 15 -19 15
-105 0 -91 -2 -105 -17 -105 -9 0 -13 -3 -9 -7 10 -11 86 -12 86 -2 0 5 -7 9
-15 9 -12 0 -15 18 -15 105 0 100 1 105 21 105 12 0 23 -8 26 -20 8 -29 20
-24 25 10 5 33 1 43 -15 33 -15 -9 -127 -10 -127 -1 0 5 -4 8 -9 8 -5 0 -12
-16 -16 -36z"/>
<path d="M144 379 c-2 -4 3 -9 11 -13 12 -4 15 -25 15 -93 0 -112 12 -133 75
-133 64 0 75 21 75 137 0 55 4 93 10 93 6 0 10 5 10 10 0 6 -13 10 -30 10 -16
0 -30 -4 -30 -10 0 -5 5 -10 10 -10 12 0 14 -179 2 -197 -13 -21 -58 -26 -76
-8 -23 23 -24 205 -1 205 8 0 15 3 15 8 0 9 -80 10 -86 1z"/>
<path d="M486 382 c-3 -6 0 -12 8 -15 10 -4 12 -28 10 -104 -2 -54 -8 -99 -14
-101 -23 -8 -7 -22 25 -22 38 0 43 7 20 24 -13 9 -15 29 -13 96 l3 85 60 -105
60 -105 3 113 c2 88 6 114 17 119 27 10 16 21 -20 21 -32 0 -47 -11 -27 -20
11 -4 25 -148 15 -148 -5 1 -29 38 -54 83 -31 56 -52 83 -66 85 -12 2 -24 -1
-27 -6z"/>
<path d="M820 378 c0 -5 5 -8 10 -8 6 0 10 -42 10 -105 0 -91 -2 -105 -17
-105 -35 0 0 -14 37 -15 40 -1 53 8 25 19 -12 4 -15 25 -15 101 0 76 3 97 15
101 27 11 16 19 -25 19 -22 0 -40 -3 -40 -7z"/>
<path d="M1025 381 c-3 -2 2 -9 10 -15 9 -6 31 -58 50 -116 18 -58 37 -103 42
-101 4 2 23 52 40 110 18 58 37 107 43 109 23 8 8 19 -22 17 -44 -4 -45 -4
-27 -15 15 -9 14 -16 -5 -85 -11 -41 -23 -75 -26 -75 -12 0 -51 155 -41 158 6
2 11 7 11 11 0 8 -68 10 -75 2z"/>
<path d="M1350 378 c0 -4 5 -8 10 -8 6 0 10 -42 10 -105 0 -88 -2 -105 -16
-105 -8 0 -13 -3 -11 -7 3 -5 38 -8 78 -8 71 0 73 1 80 28 5 20 4 27 -7 27 -8
0 -14 -7 -14 -15 0 -16 -42 -30 -65 -21 -11 4 -15 20 -15 56 0 47 2 51 22 48
12 -2 28 -14 34 -26 15 -31 21 -17 14 33 -4 29 -7 35 -12 23 -4 -11 -18 -18
-33 -18 -25 0 -26 3 -23 43 2 35 7 43 25 45 13 2 29 -5 40 -17 9 -12 21 -21
25 -21 12 0 10 38 -2 45 -15 9 -140 12 -140 3z"/>
<path d="M1650 379 c0 -5 5 -9 10 -9 6 0 10 -42 10 -105 0 -63 -4 -105 -10
-105 -5 0 -10 -4 -10 -8 0 -5 17 -8 38 -6 49 3 50 3 30 15 -13 7 -18 23 -18
55 0 56 17 55 43 -2 10 -21 21 -46 26 -54 9 -18 51 -26 51 -11 0 6 -5 11 -10
11 -6 0 -21 24 -34 53 -22 50 -22 52 -4 65 22 16 24 74 2 92 -17 15 -124 22
-124 9z m104 -31 c20 -29 20 -34 -4 -58 -34 -34 -50 -26 -50 23 0 24 3 47 7
50 12 13 32 7 47 -15z"/>
<path d="M1977 372 c-9 -10 -17 -33 -17 -50 0 -25 8 -36 44 -61 24 -17 46 -36
48 -43 8 -19 -8 -54 -27 -62 -23 -9 -55 11 -55 34 0 11 -4 20 -10 20 -17 0
-12 -57 6 -64 57 -22 114 11 114 64 0 31 -20 56 -74 93 -36 25 -32 61 7 65 22
3 30 -1 34 -17 8 -31 25 -25 21 7 -3 23 -8 27 -39 30 -24 2 -40 -3 -52 -16z"/>
<path d="M2230 379 c0 -4 7 -9 15 -13 22 -8 22 -194 0 -202 -27 -11 -16 -19
25 -19 41 0 52 8 25 19 -12 4 -15 25 -15 101 0 76 3 97 15 101 27 11 16 19
-25 19 -22 0 -40 -3 -40 -6z"/>
<path d="M2740 378 c0 -4 4 -8 9 -8 5 0 25 -29 45 -64 39 -69 48 -132 21 -142
-27 -11 -16 -19 25 -20 40 -1 53 9 25 20 -27 10 -18 73 21 142 20 35 40 64 45
64 5 0 9 4 9 9 0 5 -15 7 -32 6 -45 -4 -45 -4 -28 -15 12 -8 11 -16 -9 -57
l-23 -48 -25 49 c-20 39 -22 50 -11 57 7 5 11 9 8 9 -38 6 -80 5 -80 -2z"/>
</g>
</svg>
